<?xml version="1.0" encoding="UTF-8"?>
<svg version="1.1" xmlns="http://www.w3.org/2000/svg" width="1024" height="1024">
<path d="M0 0 C337.92 0 675.84 0 1024 0 C1024 337.92 1024 675.84 1024 1024 C686.08 1024 348.16 1024 0 1024 C0 686.08 0 348.16 0 0 Z " fill="#060F19" transform="translate(0,0)"/>
<path d="M0 0 C5.09697825 2.45410064 6.75610812 4.93575685 9 10 C9.99603865 12.85953658 10.84327364 15.75433657 11.6796875 18.6640625 C11.92821976 19.51107727 12.17675201 20.35809204 12.43281555 21.23077393 C13.25214157 24.02734012 14.06351907 26.82614832 14.875 29.625 C15.45684905 31.61622041 16.03929811 33.60726558 16.62231445 35.59814453 C17.82905901 39.72037949 19.03323436 43.84335264 20.23583984 47.96679688 C21.84774121 53.48723255 23.47625882 59.00259263 25.11328125 64.515625 C31.71581552 86.75874098 38.22186674 109.02927133 44.6875 131.3125 C44.88841122 132.00491539 45.08932243 132.69733078 45.29632187 133.41072845 C50.72272808 152.11382577 50.72272808 152.11382577 52.21176147 157.28530884 C52.6881848 158.92610938 53.17240533 160.56471231 53.67129517 162.19882202 C54.62706632 165.35632973 55 167.63502006 55 171 C55.66 171 56.32 171 57 171 C57.12874512 170.12029541 57.25749023 169.24059082 57.39013672 168.33422852 C57.94966143 165.27520973 58.7203448 162.57695207 59.7578125 159.65234375 C60.1288208 158.59378174 60.4998291 157.53521973 60.88208008 156.44458008 C61.29224365 155.28724365 61.70240723 154.12990723 62.125 152.9375 C63.0299273 150.35763515 63.93298056 147.77722183 64.83203125 145.1953125 C65.07670639 144.49289932 65.32138153 143.79048615 65.57347107 143.06678772 C67.71922017 136.8747035 69.7779074 130.65524041 71.82421875 124.4296875 C72.15325195 123.43121292 72.48228516 122.43273834 72.82128906 121.40400696 C74.808837 115.37165467 74.808837 115.37165467 76.78155518 109.33444214 C77.70825358 106.48761061 78.64438957 103.64402408 79.58203125 100.80078125 C79.85262863 99.96002045 80.12322601 99.11925964 80.40202332 98.25302124 C82.72763649 91.24511296 85.42299524 84.09240571 90.1875 78.375 C94.36095696 76.33464326 98.44200967 76.20947355 103 77 C108.28451573 79.17791084 110.18344699 83.08903115 112.8125 87.875 C113.67965398 89.40570531 114.54816105 90.93564483 115.41796875 92.46484375 C116.06258057 93.60735596 116.06258057 93.60735596 116.72021484 94.77294922 C119.21578154 99.11567326 121.92223336 103.32779537 124.6015625 107.55859375 C126 110 126 110 126 112 C126.99678268 111.14856918 127.99356537 110.29713837 129.02055359 109.41990662 C142.2902738 98.91130204 153.60418601 98.34115067 170.08203125 98.72265625 C172.55537025 98.73746167 175.02874315 98.74733632 177.50212097 98.75254822 C182.64747115 98.77530718 187.79026868 98.83650428 192.93481445 98.92993164 C199.52777026 99.04946462 206.11908518 99.1029055 212.7130022 99.13185978 C219.02373281 99.16173833 225.33406606 99.22131731 231.64453125 99.28515625 C233.44388091 99.30043712 233.44388091 99.30043712 235.27958107 99.31602669 C238.66579375 99.35073917 242.05097169 99.40627553 245.43676758 99.46899414 C246.93830887 99.48109421 246.93830887 99.48109421 248.47018433 99.49343872 C253.426497 99.6086754 257.00415077 99.72280655 261 103 C263.57073939 106.42765252 263.43037452 109.83971296 263 114 C259.92307692 119.53846154 259.92307692 119.53846154 257 121 C255.62072029 121.07625749 254.23770013 121.08978822 252.85644531 121.07073975 C251.98780853 121.06174149 251.11917175 121.05274323 250.22421265 121.04347229 C249.26850372 121.02880417 248.3127948 121.01413605 247.328125 120.99902344 C245.24333264 120.97624755 243.15853404 120.9540376 241.07373047 120.93231201 C239.96302185 120.91952965 238.85231323 120.90674728 237.70794678 120.89357758 C230.57429785 120.8230186 223.44024647 120.81674634 216.30630493 120.79972458 C210.0487602 120.78115041 203.79305075 120.73965329 197.53613281 120.64697266 C191.47712205 120.55849545 185.42079881 120.53490878 179.36120605 120.55335236 C177.06490287 120.54908583 174.7685128 120.52215908 172.47277832 120.4708786 C156.4344972 120.13041491 146.6459245 122.70058058 134.59817505 133.60264969 C131.2303581 136.54727085 129.07873167 137.33424836 124.6875 137.4375 C123.76324219 137.47746094 122.83898437 137.51742187 121.88671875 137.55859375 C116.83472734 136.58100948 114.19352802 133.75336469 111.40209961 129.65258789 C109.73970587 126.90675728 108.17001411 124.12595162 106.625 121.3125 C106.07972656 120.35021484 105.53445313 119.38792969 104.97265625 118.39648438 C101 111.30245536 101 111.30245536 101 109 C100.34 109 99.68 109 99 109 C98.73445313 110.28938477 98.46890625 111.57876953 98.1953125 112.90722656 C97.08412125 117.89518115 95.54951384 122.66091446 93.875 127.484375 C93.57177826 128.37033356 93.26855652 129.25629211 92.95614624 130.1690979 C91.97538595 133.03100957 90.98781892 135.89051789 90 138.75 C89.31941958 140.73114359 88.63924661 142.7124272 87.95947266 144.69384766 C86.28372901 149.57482753 84.60250385 154.45389777 82.91955566 159.33239746 C81.59638508 163.17087439 80.2786657 167.01121475 78.9609375 170.8515625 C74.6620749 183.36724814 74.6620749 183.36724814 73.09277344 187.85449219 C72.29998144 190.13651455 71.52418086 192.42446251 70.75878906 194.71582031 C70.3356543 195.95686523 69.91251953 197.19791016 69.4765625 198.4765625 C68.90929443 200.16773193 68.90929443 200.16773193 68.33056641 201.89306641 C66.57758169 205.98636612 64.60300021 209.09018907 60.6875 211.3125 C55.98018238 212.51669753 52.4444896 212.54890605 47.875 210.8125 C40.25089236 205.05843576 38.31717863 189.69467654 35.85546875 180.9453125 C35.27388063 178.90645312 34.68990092 176.86828825 34.10574245 174.83016396 C33.6979419 173.40721193 33.29076105 171.98408218 32.88417912 170.56078148 C30.5555654 162.41796773 28.14741468 154.29896541 25.73828125 146.1796875 C25.28922379 144.66418576 24.84023923 143.14866242 24.3913269 141.63311768 C22.80278198 136.27103661 21.21263423 130.90943129 19.62219238 125.5479126 C18.03474702 120.19634213 16.44827917 114.84448337 14.86328125 109.4921875 C14.64658091 108.76057781 14.42988056 108.02896812 14.20661354 107.27518845 C11.37952086 97.72581651 8.59767724 88.16486704 5.88223267 78.58306885 C3.80622705 71.27148575 1.57501739 64.01231201 -0.71679688 56.765625 C-2.24781051 51.83043882 -3.45462984 47.14206152 -4 42 C-4.66 42 -5.32 42 -6 42 C-6.10984222 42.54776596 -6.21968445 43.09553192 -6.33285522 43.65989685 C-7.49741214 49.20548514 -9.06086675 54.45710738 -10.9765625 59.78515625 C-11.40616776 61.00176437 -11.40616776 61.00176437 -11.8444519 62.24295044 C-12.76632055 64.85126365 -13.69521864 67.45699797 -14.625 70.0625 C-15.90146482 73.65257767 -17.17470208 77.24378376 -18.4453125 80.8359375 C-18.75660095 81.71523422 -19.0678894 82.59453094 -19.38861084 83.50047302 C-21.17495528 88.5728887 -22.8805667 93.6584396 -24.4921875 98.7890625 C-24.84071777 99.89241943 -25.18924805 100.99577637 -25.54833984 102.13256836 C-26.16189958 104.10216123 -26.75981562 106.07672918 -27.33837891 108.05688477 C-29.14432517 113.82243558 -30.9478179 116.6115069 -36 120 C-38.97956127 121.48978063 -41.67700638 121.13633675 -45.00239563 121.14717102 C-46.09610097 121.15268605 -46.09610097 121.15268605 -47.21190137 121.1583125 C-49.66772317 121.16937093 -52.1235027 121.17319681 -54.5793457 121.17700195 C-56.33505387 121.18326494 -58.0907607 121.18991159 -59.84646606 121.19691467 C-64.62545194 121.21433886 -69.4044278 121.22488013 -74.18343759 121.2331202 C-77.1675072 121.23826698 -80.15157369 121.24434283 -83.1356411 121.25063133 C-92.46724102 121.26968671 -101.798833 121.28391754 -111.13044864 121.2922433 C-121.91137783 121.30202031 -132.69210195 121.32835049 -143.47295886 121.36874419 C-151.79997412 121.39887601 -160.12693049 121.41370935 -168.45399922 121.41702431 C-173.43022861 121.41937801 -178.40623901 121.42837995 -183.38241005 121.45348549 C-188.06344377 121.47672018 -192.7441136 121.48101806 -197.42518997 121.47072411 C-199.1437024 121.47022752 -200.86223246 121.47658395 -202.58069038 121.49028015 C-204.92644991 121.50793058 -207.27089378 121.50092785 -209.61665344 121.48774719 C-211.58585487 121.49132972 -211.58585487 121.49132972 -213.59483814 121.49498463 C-217.55630537 120.91913377 -219.19388904 119.79739624 -222 117 C-223.1977191 114.60456179 -223.3052625 112.86030046 -223.4375 110.1875 C-223.52837891 108.90939453 -223.52837891 108.90939453 -223.62109375 107.60546875 C-222.85306607 104.38361678 -221.3050948 103.08529883 -218.75500178 101.06174242 C-215.82510216 99.28920934 -213.19948013 99.38626484 -209.82461548 99.39872742 C-209.12528503 99.39445529 -208.42595458 99.39018317 -207.7054323 99.38578159 C-205.37408546 99.3775791 -203.04455848 99.40498748 -200.71337891 99.43237305 C-199.03763878 99.43378413 -197.36189556 99.43299036 -195.68615723 99.43016052 C-191.14506322 99.42872729 -186.60463101 99.4581018 -182.06369066 99.49303031 C-177.31514889 99.52430942 -172.56659155 99.52722578 -167.81796265 99.53315735 C-158.82944381 99.54869122 -149.84122943 99.58971353 -140.8528446 99.6399048 C-130.6183604 99.69581244 -120.38386158 99.72328834 -110.14926267 99.74838197 C-89.09933859 99.80062976 -68.04968848 99.88856322 -47 100 C-46.88058422 99.4282605 -46.76116844 98.856521 -46.638134 98.26745605 C-45.61557401 93.5014831 -44.41953221 88.90262382 -42.84863281 84.28125 C-42.21722382 82.41255249 -42.21722382 82.41255249 -41.57305908 80.50610352 C-41.11654141 79.17069225 -40.65989329 77.83532557 -40.203125 76.5 C-39.72673 75.09640232 -39.25072454 73.69267237 -38.77508545 72.28881836 C-37.5256351 68.60489407 -36.27038915 64.92296962 -35.01403809 61.24139404 C-33.75538715 57.54899602 -32.50314026 53.85442726 -31.25 50.16015625 C-29.1244417 43.89702797 -26.98809725 37.63767206 -24.84201813 31.38154602 C-23.58345002 27.71115815 -22.33690055 24.03698298 -21.09960938 20.359375 C-20.58247444 18.84359873 -20.06494698 17.32795626 -19.546875 15.8125 C-19.13791992 14.60207031 -18.72896484 13.39164062 -18.30761719 12.14453125 C-14.48645291 2.95547301 -10.0663647 -1.55539316 0 0 Z " fill="#DF2324" transform="translate(492,445)"/>
<path d="M0 0 C1.05930725 -0.00101212 1.05930725 -0.00101212 2.14001465 -0.00204468 C13.51170024 0.01514814 24.38792676 0.73678838 35.5 3.25 C36.29728516 3.42160645 37.09457031 3.59321289 37.91601562 3.77001953 C74.11909519 11.66387106 103.8795607 28.82966247 130.5 54.25 C131.15484375 54.85199219 131.8096875 55.45398438 132.484375 56.07421875 C157.06169528 79.30563816 172.85830194 113.57821256 179.5 146.25 C179.82097656 147.79300781 179.82097656 147.79300781 180.1484375 149.3671875 C189.14868808 195.41194771 178.71401336 244.89418209 153.09570312 283.92480469 C148.66039723 290.38775655 143.67579558 296.37242836 138.5 302.25 C137.98405273 302.83894043 137.46810547 303.42788086 136.93652344 304.03466797 C121.33788325 321.7081749 103.41598672 335.42827343 82.5 346.25 C81.88979004 346.56807617 81.27958008 346.88615234 80.65087891 347.21386719 C64.20184067 355.66580254 42.2534182 364.23702201 23.5 363.25 C22.99038154 361.85764957 22.49275091 360.46090882 22 359.0625 C21.7215625 358.28519531 21.443125 357.50789063 21.15625 356.70703125 C20.4646832 354.11777221 20.38629083 351.91742762 20.5 349.25 C21.78390625 349.03085937 23.0678125 348.81171875 24.390625 348.5859375 C55.75227195 343.04730488 84.15420215 332.29897106 108.5 311.25 C109.304375 310.56679688 110.10875 309.88359375 110.9375 309.1796875 C142.62217321 281.55461305 162.13755967 241.97435602 166.5 200.25 C166.84922382 194.37961564 166.84043975 188.50359903 166.8125 182.625 C166.81067719 181.83008148 166.80885437 181.03516296 166.80697632 180.21615601 C166.76117726 168.35509567 166.39066241 156.81264965 163.5 145.25 C163.32307617 144.53972656 163.14615234 143.82945312 162.96386719 143.09765625 C161.66946716 138.0810178 160.14611264 133.16125595 158.5 128.25 C158.17757324 127.26700928 158.17757324 127.26700928 157.84863281 126.26416016 C143.86831329 84.25006091 112.55071931 50.68423228 73.24902344 30.99145508 C57.74555587 23.5353227 41.53796244 18.55003647 24.5 16.25 C22.66538208 15.99307373 22.66538208 15.99307373 20.79370117 15.73095703 C16.53455012 15.20327677 12.32738612 15.07172324 8.0390625 15.046875 C7.2496225 15.04117493 6.4601825 15.03547485 5.64682007 15.02960205 C3.98119418 15.02021039 2.3155502 15.01364148 0.64990234 15.00976562 C-1.83401272 15.00015853 -4.31706309 14.96912084 -6.80078125 14.9375 C-21.42928976 14.83971124 -35.63406204 16.57828541 -49.625 21 C-50.45281982 21.25604004 -51.28063965 21.51208008 -52.13354492 21.77587891 C-60.19944063 24.34599722 -67.89616986 27.54105325 -75.5 31.25 C-76.13244629 31.55663574 -76.76489258 31.86327148 -77.41650391 32.17919922 C-115.96114564 51.13219792 -143.84073194 85.22890091 -158.5 125.25 C-160.84018086 132.15539082 -162.85911378 139.14613387 -164.5 146.25 C-164.76925293 147.40363037 -165.03850586 148.55726074 -165.31591797 149.74584961 C-167.43458274 159.75149171 -167.96684874 169.39943032 -167.89111328 179.61303711 C-167.8750343 182.18201944 -167.89106 184.7494243 -167.91015625 187.31835938 C-167.96765887 233.54272142 -146.86021384 274.76572892 -114.7265625 307.03515625 C-101.58481301 319.54682186 -86.47750344 328.80341339 -70.5 337.25 C-71.21160767 340.39364834 -72.11996552 342.40995402 -74.0625 345 C-74.51753906 345.61359375 -74.97257812 346.2271875 -75.44140625 346.859375 C-75.79074219 347.31828125 -76.14007813 347.7771875 -76.5 348.25 C-81.73769694 347.70527952 -85.7913357 345.10362588 -90.25 342.5 C-91.08474854 342.01337891 -91.91949707 341.52675781 -92.77954102 341.02539062 C-106.24857368 332.99207926 -118.23779715 323.12047406 -129.5 312.25 C-130.34820312 311.45335937 -131.19640625 310.65671875 -132.0703125 309.8359375 C-138.96930144 303.19647166 -144.82464994 295.93437847 -150.5 288.25 C-151.12624268 287.4142041 -151.12624268 287.4142041 -151.76513672 286.56152344 C-164.32956401 269.58633924 -173.17676384 249.62716757 -178.5 229.25 C-178.69529297 228.51313965 -178.89058594 227.7762793 -179.09179688 227.01708984 C-182.82470341 212.70447262 -184.88078713 198.6317834 -184.8125 183.8125 C-184.80686035 182.51062744 -184.8012207 181.20875488 -184.79541016 179.86743164 C-184.21549506 133.0120147 -165.99581147 89.87283383 -133.5 56.25 C-132.62859375 55.32703125 -131.7571875 54.4040625 -130.859375 53.453125 C-96.80310577 18.20189895 -48.52829281 0.0419992 0 0 Z " fill="#F8F5EE" transform="translate(512.5,144.75)"/>
<path d="M0 0 C0.74427246 0.26441895 1.48854492 0.52883789 2.25537109 0.80126953 C3.52018311 1.23536133 3.52018311 1.23536133 4.81054688 1.67822266 C5.70757324 2.01015625 6.60459961 2.34208984 7.52880859 2.68408203 C8.91495361 3.17811523 8.91495361 3.17811523 10.32910156 3.68212891 C12.24526823 4.37010121 14.15819149 5.06716993 16.06787109 5.77294922 C18.76108433 6.75693656 21.46756971 7.68376289 24.18505859 8.59814453 C25.80040226 9.16629989 27.41502401 9.73651326 29.02880859 10.30908203 C29.77984863 10.5564209 30.53088867 10.80375977 31.3046875 11.05859375 C31.99997559 11.31656738 32.69526367 11.57454102 33.41162109 11.84033203 C34.01635254 12.05238281 34.62108398 12.26443359 35.24414062 12.48291016 C40.47380152 16.66171539 41.93639256 26.91759981 43.84521484 33.02392578 C44.21355942 34.19363419 44.58190399 35.36334259 44.96141052 36.5684967 C45.73716067 39.03478321 46.5111371 41.50162825 47.28344727 43.96899414 C48.46161233 47.73158404 49.64613338 51.49212843 50.83154297 55.25244141 C51.58647903 57.65531723 52.34104855 60.05830825 53.09521484 62.46142578 C53.44733536 63.5793602 53.79945587 64.69729462 54.1622467 65.84910583 C55.09377913 68.8307504 56.00488583 71.8174668 56.90380859 74.80908203 C57.15155029 75.60537018 57.39929199 76.40165833 57.65454102 77.22207642 C59.0943059 82.21787413 59.0943059 82.21787413 58.21972656 84.93212891 C57.56447998 85.72200195 57.56447998 85.72200195 56.89599609 86.52783203 C56.4091333 87.14263428 55.92227051 87.75743652 55.4206543 88.39086914 C54.60794067 89.34038452 54.60794067 89.34038452 53.77880859 90.30908203 C52.66474244 91.69517028 51.55148608 93.08190972 50.43896484 94.46923828 C49.85775879 95.17709473 49.27655273 95.88495117 48.67773438 96.61425781 C45.74597787 100.24163064 42.99085366 103.99852727 40.21630859 107.74658203 C35.07538284 114.63750779 35.07538284 114.63750779 33.90380859 115.80908203 C22.28282255 115.75114564 10.82699957 113.66854056 -0.59619141 111.74658203 C-3.13331747 111.32155052 -5.67072263 110.89877581 -8.20935059 110.48280334 C-9.77184982 110.22667581 -11.33353375 109.96550048 -12.89416504 109.69822693 C-17.35986873 108.96488338 -21.57019249 108.68745139 -26.09619141 108.80908203 C-26.42619141 109.46908203 -26.75619141 110.12908203 -27.09619141 110.80908203 C-27.75619141 110.80908203 -28.41619141 110.80908203 -29.09619141 110.80908203 C-38.59021001 92.22672397 -50.62782522 67.45206917 -48.09619141 45.80908203 C-46.41943165 43.40425553 -44.91131301 41.64560373 -42.84619141 39.62158203 C-42.25789551 39.01862305 -41.66959961 38.41566406 -41.06347656 37.79443359 C-39.64388889 36.34824377 -38.21467953 34.91146937 -36.77880859 33.48144531 C-34.15282074 30.8654949 -31.54407024 28.23343635 -28.93823242 25.59745789 C-23.34969831 19.94735006 -17.74698637 14.31115418 -12.11962891 8.69970703 C-11.29841049 7.87556557 -11.29841049 7.87556557 -10.46060181 7.03477478 C-3.09958992 -0.282306 -3.09958992 -0.282306 0 0 Z " fill="#FAF5EE" transform="translate(408.09619140625,295.19091796875)"/>
<path d="M0 0 C70.33333333 0 70.33333333 0 82 9 C92.0767072 19.23084421 94.30345043 30.38511376 94.31469727 44.19873047 C94.12000574 56.93777716 90.42276081 67.72152612 81.19140625 76.7734375 C72.16995171 84.16315286 61.32288921 87.14667901 49.8515625 87.09765625 C48.64838379 87.09515869 47.44520508 87.09266113 46.20556641 87.09008789 C43.93818604 87.07643188 43.93818604 87.07643188 41.625 87.0625 C36.79875 87.041875 31.9725 87.02125 27 87 C27 102.51 27 118.02 27 134 C18.09 134 9.18 134 0 134 C0 89.78 0 45.56 0 0 Z " fill="#F8F4ED" transform="translate(483,694)"/>
<path d="M0 0 C1.89760971 1.40342172 3.55938331 2.84875452 5.22290039 4.52441406 C5.85091553 5.15371826 6.47893066 5.78302246 7.12597656 6.43139648 C7.78057861 7.09888916 8.43518066 7.76638184 9.10961914 8.45410156 C9.78677979 9.13770752 10.46394043 9.82131348 11.16162109 10.52563477 C14.91859345 14.34077726 18.54421301 18.21518964 21.99633789 22.30957031 C24.97263601 25.6474144 28.19041645 28.74454484 31.37353516 31.88378906 C34.93179908 35.41104292 38.28528073 39.04995243 41.49243164 42.90332031 C42.76060839 44.45999167 42.76060839 44.45999167 44.79711914 45.32910156 C45.03446092 52.19107125 44.24924637 58.22167992 42.67211914 64.89160156 C42.44693604 65.85396729 42.22175293 66.81633301 41.98974609 67.80786133 C40.09597623 75.6134133 37.79918909 83.06219017 34.57006836 90.41601562 C33.75597087 92.43094549 33.15711724 94.4539332 32.55102539 96.54003906 C31.08140277 100.88319416 29.60122777 104.57047313 25.79711914 107.32910156 C18.43253396 109.80991699 10.51595826 109.89931985 2.81274414 110.19042969 C-0.80439328 110.35676178 -4.25511459 110.8126811 -7.82788086 111.39160156 C-12.76047503 112.12258376 -17.69526853 112.81399243 -22.64038086 113.45410156 C-23.9178418 113.62167969 -25.19530273 113.78925781 -26.51147461 113.96191406 C-36.41702192 114.94722776 -36.41702192 114.94722776 -39.17944336 112.77441406 C-39.99541992 111.62585938 -39.99541992 111.62585938 -40.82788086 110.45410156 C-41.81208008 109.10832031 -41.81208008 109.10832031 -42.81616211 107.73535156 C-43.18306152 107.21070313 -43.54996094 106.68605469 -43.92797852 106.14550781 C-45.42598557 104.01123503 -46.95971855 101.90484509 -48.49584961 99.79785156 C-51.28124743 95.97073508 -54.04549321 92.12918438 -56.79589844 88.27685547 C-58.16113476 86.27952134 -58.16113476 86.27952134 -59.94384766 84.58056641 C-62.31547496 80.3395063 -60.65922389 75.95462097 -59.41677856 71.52896118 C-58.40178874 68.23404249 -57.32897642 64.96293038 -56.23803711 61.69238281 C-55.8446666 60.49477829 -55.45129608 59.29717377 -55.04600525 58.0632782 C-54.21633501 55.54156453 -53.38408619 53.02090836 -52.546875 50.50170898 C-51.47709607 47.2826831 -50.41509079 44.0611648 -49.35605717 40.83858967 C-48.33996593 37.74738977 -47.32039177 34.65734279 -46.30053711 31.56738281 C-45.92026871 30.41522781 -45.54000031 29.26307281 -45.14820862 28.07600403 C-44.61271645 26.46359077 -44.61271645 26.46359077 -44.06640625 24.81860352 C-43.75409561 23.87676712 -43.44178497 22.93493073 -43.12001038 21.96455383 C-42.81735764 21.09485458 -42.5147049 20.22515533 -42.20288086 19.32910156 C-41.89986557 18.43100266 -41.59685028 17.53290375 -41.28465271 16.60758972 C-38.19013897 10.08975242 -25.5840229 7.65684067 -19.00170898 5.21777344 C-16.93816782 4.44861748 -14.8833815 3.65851578 -12.82788086 2.86816406 C-11.51065984 2.37727113 -10.19296726 1.88764127 -8.87475586 1.39941406 C-7.68978516 0.95355957 -6.50481445 0.50770508 -5.28393555 0.04833984 C-2.20288086 -0.67089844 -2.20288086 -0.67089844 0 0 Z " fill="#FAF5EE" transform="translate(618.202880859375,295.6708984375)"/>
<path d="M0 0 C4.57740881 0.63379507 8.41735683 2.43930266 12.5 4.5 C13.20342529 4.85457275 13.90685059 5.20914551 14.6315918 5.57446289 C28.34983609 12.66369452 40.47767953 22.36851247 51.4375 33.1875 C52.18205444 33.91803589 52.18205444 33.91803589 52.94165039 34.66333008 C56.13828185 37.88835177 58.60307194 41.17511481 61 45 C58.03 45 55.06 45 52 45 C51.867146 46.30646484 51.73429199 47.61292969 51.59741211 48.95898438 C51.08343706 53.57254247 50.32011662 58.09996012 49.44140625 62.65625 C49.29219223 63.44342407 49.14297821 64.23059814 48.98924255 65.04162598 C48.67566827 66.69228185 48.36046983 68.34262995 48.04370117 69.99267578 C47.56382027 72.49312065 47.08909869 74.99450242 46.61523438 77.49609375 C46.30759356 79.11203667 45.99966055 80.727924 45.69140625 82.34375 C45.48192101 83.44571716 45.48192101 83.44571716 45.26820374 84.56994629 C44.99465029 85.99213014 44.7130329 87.41278957 44.42288208 88.8316803 C44.12430069 90.3626506 43.86589624 91.90171919 43.63644409 93.44456482 C42.60550419 99.54355743 42.60550419 99.54355743 39.63671875 101.78149414 C38.66347656 102.09207764 37.69023438 102.40266113 36.6875 102.72265625 C35.60855469 103.09793457 34.52960938 103.47321289 33.41796875 103.85986328 C32.29003906 104.2361084 31.16210938 104.61235352 30 105 C27.82603712 105.89789874 25.65922705 106.81331548 23.5 107.74609375 C21.33371505 108.64415051 19.16704721 109.5412842 17 110.4375 C15.89527344 110.90865234 14.79054688 111.37980469 13.65234375 111.86523438 C12.06099609 112.51782227 12.06099609 112.51782227 10.4375 113.18359375 C9.01244141 113.77998657 9.01244141 113.77998657 7.55859375 114.38842773 C5 115 5 115 2.83422852 114.23168945 C0.17142425 112.44360912 -2.46486186 110.6310869 -5.0625 108.75 C-5.66610352 108.31598877 -6.26970703 107.88197754 -6.89160156 107.43481445 C-12.84654832 103.13943074 -18.75038982 98.77436921 -24.65478516 94.40991211 C-31.14162411 89.61883804 -37.66799303 84.88458519 -44.21386719 80.17456055 C-44.91543945 79.66965088 -45.61701172 79.16474121 -46.33984375 78.64453125 C-46.95206787 78.20471924 -47.56429199 77.76490723 -48.19506836 77.31176758 C-48.7906958 76.87888428 -49.38632324 76.44600098 -50 76 C-51.07374878 75.43104004 -51.07374878 75.43104004 -52.16918945 74.85058594 C-55.02789395 71.96100332 -54.80750119 68.61170105 -54.953125 64.74609375 C-54.98541199 63.93060562 -55.01769897 63.11511749 -55.05096436 62.2749176 C-55.10627631 60.54617146 -55.14918932 58.81699086 -55.18066406 57.08764648 C-55.22659457 55.33209853 -55.30821267 53.57709423 -55.42675781 51.82495117 C-56.37172719 37.85233833 -56.37172719 37.85233833 -52.59762573 33.31344604 C-48.8533109 30.15949222 -44.59871478 28.06738601 -40.17437744 26.02816772 C-37.48339485 24.75572008 -34.95604573 23.27937581 -32.40133667 21.75605774 C-30.64026408 20.70599103 -28.86458982 19.68737895 -27.08007812 18.67773438 C-26.5007251 18.34990967 -25.92137207 18.02208496 -25.32446289 17.68432617 C-24.45229126 17.19089722 -24.45229126 17.19089722 -23.5625 16.6875 C-22.36246011 16.00485623 -21.16259034 15.32191331 -19.96289062 14.63867188 C-19.3763974 14.30529816 -18.78990417 13.97192444 -18.18563843 13.62844849 C-16.49177784 12.66535886 -14.7988528 11.70062439 -13.10595703 10.73583984 C-11.1499686 9.642688 -9.17851158 8.57635097 -7.18701172 7.54931641 C-6.37119629 7.1269873 -5.55538086 6.7046582 -4.71484375 6.26953125 C-4.01351318 5.92124268 -3.31218262 5.5729541 -2.58959961 5.21411133 C-0.56126761 3.66490306 -0.35679222 2.47542897 0 0 Z " fill="#FAF6EF" transform="translate(571,183)"/>
<path d="M0 0 C2.11422644 1.21903107 4.10615104 2.52779964 6.11035156 3.91992188 C11.59046304 7.61362446 17.32470948 10.78122874 23.11035156 13.96679688 C30.82112852 18.2477136 38.51047659 22.55388889 46.11035156 27.02929688 C46.81546875 27.4434082 47.52058594 27.85751953 48.24707031 28.28417969 C52.97659768 31.08304299 52.97659768 31.08304299 54.11035156 32.21679688 C54.57387126 37.60740065 54.72436303 42.99754713 54.8449707 48.40551758 C54.89645816 50.22275038 54.97126856 52.03948762 55.07055664 53.85473633 C55.92153015 69.70139977 55.92153015 69.70139977 51.68896484 74.47753906 C48.77263791 77.15086121 45.49550219 79.17958891 42.11035156 81.21679688 C40.58446043 82.3357426 39.06747194 83.46702656 37.56347656 84.61523438 C36.16549162 85.61172416 34.76443229 86.60391475 33.36035156 87.59179688 C26.77029533 92.28307083 20.25889493 97.05697792 13.8515625 101.99560547 C12.63707072 102.91981856 11.40489445 103.82118175 10.1574707 104.70043945 C8.00485821 106.23703429 8.00485821 106.23703429 5.8269043 108.33276367 C2.52644946 111.04847119 -0.39637411 113.42015134 -4.87722778 113.0546875 C-10.48279738 111.82661275 -15.69466039 109.526826 -20.95214844 107.27929688 C-22.56955605 106.63366236 -24.18869261 105.99234141 -25.80957031 105.35546875 C-37.36134491 100.7451004 -37.36134491 100.7451004 -39.88964844 98.21679688 C-40.49633789 95.90795898 -40.49633789 95.90795898 -41.00292969 92.99414062 C-41.19661133 91.9094751 -41.39029297 90.82480957 -41.58984375 89.70727539 C-41.7919043 88.53479248 -41.99396484 87.36230957 -42.20214844 86.15429688 C-42.63938512 83.70349625 -43.07822694 81.25298153 -43.51855469 78.80273438 C-43.7430127 77.5481543 -43.9674707 76.29357422 -44.19873047 75.00097656 C-45.27970414 69.08044936 -46.4526485 63.17934623 -47.63964844 57.27929688 C-47.95542847 55.70039673 -47.95542847 55.70039673 -48.27758789 54.08959961 C-49.47737589 48.12926618 -49.47737589 48.12926618 -50.88964844 42.21679688 C-52.53964844 41.88679688 -54.18964844 41.55679688 -55.88964844 41.21679688 C-46.90626529 25.70004417 -29.79297186 15.30996952 -14.75390625 6.33007812 C-13.0185655 5.29378245 -11.29350167 4.24033062 -9.56933594 3.18554688 C-8.60253906 2.61835938 -7.63574219 2.05117187 -6.63964844 1.46679688 C-5.39441406 0.73203125 -5.39441406 0.73203125 -4.12402344 -0.01757812 C-1.88964844 -0.78320312 -1.88964844 -0.78320312 0 0 Z " fill="#FAF6EE" transform="translate(450.8896484375,184.783203125)"/>
<path d="M0 0 C0.84240234 -0.00773438 1.68480469 -0.01546875 2.55273438 -0.0234375 C15.85984422 0.01753897 26.90956804 4.18634662 36.6640625 13.40234375 C48.00625586 26.86888929 50.23016827 43.19171695 49.0625 60.25 C47.68328669 72.27423239 43.26487491 84.46869219 34.06640625 92.76171875 C23.5545628 100.56876038 12.60001195 103.82440815 -0.375 103.6875 C-1.38981445 103.67920166 -2.40462891 103.67090332 -3.45019531 103.66235352 C-10.61308393 103.50019015 -16.60580675 102.81223811 -22.9375 99.25 C-23.86433594 98.76402344 -24.79117188 98.27804687 -25.74609375 97.77734375 C-37.3594509 91.11187553 -43.08098513 81.87884483 -46.9375 69.25 C-50.19316009 55.28644296 -50.35799433 36.82578512 -42.9375 24.25 C-42.46828125 23.41984375 -41.9990625 22.5896875 -41.515625 21.734375 C-34.88693513 10.97166349 -26.29145386 4.8117634 -14.1796875 1.09765625 C-9.45701946 -0.00454294 -4.8299567 -0.04414279 0 0 Z " fill="#F9F5EE" transform="translate(273.9375,725.75)"/>
<path d="M0 0 C1.19044922 -0.02449219 2.38089844 -0.04898438 3.60742188 -0.07421875 C18.07940551 -0.12143566 31.73313724 4.27651737 42.3125 14.375 C44.10549992 16.6470819 45.70441592 18.96287389 47.3125 21.375 C42.64727149 26.99719846 37.79990595 32.53510796 32.3125 37.375 C31.6525 37.375 30.9925 37.375 30.3125 37.375 C29.27010439 36.18157548 28.27840275 34.94363796 27.3125 33.6875 C21.11003561 26.40186095 12.3229738 23.13828442 2.98046875 22.12109375 C-7.47172255 21.61082929 -16.49537778 25.81606341 -24.25 32.625 C-36.24485456 46.15765643 -36.3323005 62.16794161 -35.6875 79.375 C-34.65783004 91.69193811 -31.10761094 102.012945 -21.6875 110.375 C-13.86606646 115.50427345 -5.78716142 116.44126472 3.3515625 114.84375 C9.52274001 113.40641245 14.76055087 111.40333589 20.3125 108.375 C21.3025 108.045 22.2925 107.715 23.3125 107.375 C23.3125 100.445 23.3125 93.515 23.3125 86.375 C15.3925 86.375 7.4725 86.375 -0.6875 86.375 C-0.6875 79.115 -0.6875 71.855 -0.6875 64.375 C15.4825 64.375 31.6525 64.375 48.3125 64.375 C48.52269713 71.68285342 48.7228521 78.97968565 48.83000183 86.28794098 C48.88267583 89.69124958 48.95294501 93.09204128 49.06689453 96.49389648 C49.19701086 100.40316632 49.24497497 104.31143349 49.2890625 108.22265625 C49.34067535 109.43333267 49.39228821 110.64400909 49.44546509 111.89137268 C49.45093111 120.14604745 49.45093111 120.14604745 46.20428467 123.65084839 C43.64194918 125.48442904 41.12940776 126.96825519 38.3125 128.375 C37.39425446 128.85272354 36.47600891 129.33044708 35.52993774 129.82264709 C17.29142761 138.98724297 -5.12098995 141.72334625 -24.6875 135.375 C-40.02526812 129.36673393 -50.65975074 119.66458588 -57.89453125 104.9140625 C-62.78810436 93.58736518 -64.17931944 82.11508153 -64.0625 69.875 C-64.07410156 68.65941406 -64.08570312 67.44382812 -64.09765625 66.19140625 C-64.06128384 54.83108888 -62.31325909 44.21818151 -56.9375 34.125 C-56.58534424 33.44880615 -56.23318848 32.7726123 -55.87036133 32.07592773 C-47.51855507 16.43014805 -35.0494045 6.66673754 -18.1484375 1.23828125 C-12.18464494 -0.16400247 -6.09332947 0.00649263 0 0 Z " fill="#F8F4ED" transform="translate(161.6875,691.625)"/>
<path d="M0 0 C1.52305725 -0.02338355 3.04607605 -0.04940412 4.56904602 -0.07791138 C7.75329523 -0.12250534 10.93355407 -0.12110119 14.11791992 -0.08935547 C17.36095163 -0.06154481 20.59050089 -0.10288892 23.83178711 -0.21240234 C51.97207719 -1.15658956 51.97207719 -1.15658956 59.42089844 5.66748047 C62.56907248 9.31696221 64.92751306 13.21167303 67.08197021 17.51046753 C69.04307585 21.20194027 71.60899523 24.39556825 74.17578125 27.6796875 C78.30078125 33.14547823 78.30078125 33.14547823 78.30078125 37.8046875 C77.26611328 40.17626953 77.26611328 40.17626953 75.80859375 42.8125 C75.27282715 43.79114014 74.73706055 44.76978027 74.18505859 45.77807617 C73.60449707 46.81810791 73.02393555 47.85813965 72.42578125 48.9296875 C71.83877441 49.99614502 71.25176758 51.06260254 70.64697266 52.16137695 C68.87276301 55.38023139 67.08739334 58.59270463 65.30078125 61.8046875 C64.30528778 63.60768561 63.31044167 65.41104138 62.31640625 67.21484375 C60.65683047 70.2199571 58.9954097 73.2239843 57.32421875 76.22265625 C56.97818604 76.84487061 56.63215332 77.46708496 56.27563477 78.1081543 C55.41295481 79.60947235 54.48066674 81.07031876 53.5390625 82.5234375 C52.20146681 84.98765164 51.97255872 86.34964449 52.11328125 89.1171875 C52.17515625 90.3340625 52.23703125 91.5509375 52.30078125 92.8046875 C44.88647534 94.64186065 37.92392599 95.04045486 30.30078125 94.8046875 C29.90922852 94.05916626 29.90922852 94.05916626 29.50976562 93.29858398 C28.27391805 90.94619899 27.03738606 88.59417451 25.80078125 86.2421875 C25.34952881 85.38334961 24.89827637 84.52451172 24.43334961 83.63964844 C22.29138639 79.567693 20.14327404 75.49970331 17.9609375 71.44921875 C17.60515625 70.78801025 17.249375 70.12680176 16.8828125 69.44555664 C15.92164981 67.6629405 14.95702967 65.88218981 13.9921875 64.1015625 C12.7783617 61.73558334 11.71128379 59.4482055 10.703125 57 C9.25910223 53.70971971 8.37930395 52.53635652 5.30078125 50.8046875 C0.19516202 49.10281442 -5.05699498 48.80787005 -10.15185547 50.72998047 C-12.54762598 51.97776726 -14.84177833 53.31780873 -17.13671875 54.7421875 C-18.69692617 55.66963705 -20.25808419 56.59548982 -21.8203125 57.51953125 C-22.49505615 57.93323975 -23.1697998 58.34694824 -23.86499023 58.77319336 C-25.69921875 59.8046875 -25.69921875 59.8046875 -28.69921875 60.8046875 C-29.05113281 60.06605469 -29.40304687 59.32742188 -29.765625 58.56640625 C-32.9340495 52.05583162 -36.3630208 46.07536463 -40.57421875 40.1796875 C-40.94546875 39.3959375 -41.31671875 38.6121875 -41.69921875 37.8046875 C-40.47629642 34.6697002 -38.56018422 32.13059563 -36.5390625 29.4609375 C-35.90935547 28.625625 -35.27964844 27.7903125 -34.63085938 26.9296875 C-33.97279297 26.0634375 -33.31472656 25.1971875 -32.63671875 24.3046875 C-31.35413084 22.60679789 -30.0715792 20.9088809 -28.7890625 19.2109375 C-28.15216492 18.39444733 -27.51526733 17.57795715 -26.85906982 16.73672485 C-24.65255408 13.84701029 -24.65255408 13.84701029 -22.88299561 10.71517944 C-16.79689651 0.96970015 -10.7639174 -0.06933714 0 0 Z " fill="#F8F4ED" transform="translate(492.69921875,382.1953125)"/>
<path d="M0 0 C1.093125 0.598125 2.18625 1.19625 3.3125 1.8125 C11.21102461 8.24153166 15.64747322 15.874232 17 26 C17.19281428 29.62099429 17.25564173 33.24185816 17.31640625 36.8671875 C17.33718735 37.90191193 17.35796844 38.93663635 17.37937927 40.00271606 C17.4445282 43.29341274 17.50359809 46.58418617 17.5625 49.875 C17.6057182 52.11198696 17.64933353 54.34896629 17.69335938 56.5859375 C17.80017389 62.05721158 17.90200337 67.52856126 18 73 C19.98 73.99 21.96 74.98 24 76 C24 82.93 24 89.86 24 97 C16.1786658 99.6071114 8.80943986 100.50081677 1 97.3125 C-2.57894189 95.5002953 -4.81385474 93.42179258 -7 90 C-10.60256651 91.75655613 -14.03609384 93.74836406 -17.48828125 95.78125 C-26.18805424 100.00260175 -36.59895611 100.40101485 -45.98046875 98.34765625 C-53.46195955 95.64504019 -59.73740144 90.93419507 -63.4375 83.8125 C-67.21543463 75.49426724 -67.5328612 65.22924059 -64.5 56.625 C-60.32963613 47.74474965 -52.99692925 42.41262834 -44 39 C-32.35677223 34.85126367 -20.17928157 35.69563502 -8 36 C-8.27475676 34.39401946 -8.56240672 32.79024122 -8.85546875 31.1875 C-9.01426514 30.29417969 -9.17306152 29.40085937 -9.33666992 28.48046875 C-10.30357358 24.86481136 -12.03836443 23.20400786 -15 21 C-23.13640457 17.16387637 -31.13266611 18.41822626 -39.375 21.375 C-41.5856896 22.2440297 -43.79416038 23.11873235 -46 24 C-47.99538699 24.68034934 -49.99402228 25.35154195 -52 26 C-53.70029485 23.57058047 -55.38520316 21.13271588 -57.0625 18.6875 C-57.54783203 17.99720703 -58.03316406 17.30691406 -58.53320312 16.59570312 C-58.98759766 15.92861328 -59.44199219 15.26152344 -59.91015625 14.57421875 C-60.33433838 13.96151123 -60.75852051 13.34880371 -61.19555664 12.7175293 C-62 11 -62 11 -61 8 C-44.4284374 -3.81603365 -18.8715941 -10.38836323 0 0 Z " fill="#F9F5EE" transform="translate(399,730)"/>
<path d="M0 0 C0.78947021 0.00563965 1.57894043 0.0112793 2.39233398 0.01708984 C14.34139866 0.26296038 23.78165928 3.02612925 32.50390625 11.421875 C45.21168609 24.9955625 45.3125 38.62688405 45.3125 57.3125 C23.8625 57.3125 2.4125 57.3125 -19.6875 57.3125 C-16.71058785 70.57151205 -16.71058785 70.57151205 -7.6875 79.3125 C-0.34463236 82.89438665 8.51219144 82.21877777 16.0625 79.625 C21.03096565 77.72667114 24.60050923 75.25749423 29.3125 72.3125 C33.9325 76.9325 38.5525 81.5525 43.3125 86.3125 C33.68723578 97.54197493 24.01503233 102.28851503 9.3125 104.3125 C-5.31782685 105.42945862 -19.11251742 102.67653085 -30.6875 93.3125 C-40.07752771 84.93717512 -44.89944323 73.1969835 -45.89257812 60.74023438 C-45.99070464 58.01071505 -46.01669298 55.2937101 -46 52.5625 C-45.99436035 51.59530029 -45.9887207 50.62810059 -45.98291016 49.6315918 C-45.7411526 35.33318793 -42.43041467 23.20811754 -32.5625 12.5 C-23.59457372 4.04712354 -12.1997239 -0.09140326 0 0 Z " fill="#F9F5EE" transform="translate(875.6875,725.6875)"/>
<path d="M0 0 C8.58 0 17.16 0 26 0 C26.01458252 1.95744141 26.02916504 3.91488281 26.04418945 5.93164062 C26.09597652 12.42174814 26.1612986 18.91161087 26.23571491 25.40149689 C26.28031399 29.3337242 26.31959258 33.2658504 26.34643555 37.19824219 C26.37257372 40.99802961 26.41304884 44.79742575 26.46318626 48.5969696 C26.47978432 50.04167285 26.49134236 51.48644366 26.49761391 52.93122864 C26.44487366 65.50426175 26.44487366 65.50426175 32 76.5 C36.71666793 78.85833396 40.83900213 78.88436536 46 78 C52.02480546 75.74977145 57.89238401 73.07917746 62 68 C62.61633605 64.85800372 62.61633605 64.85800372 62.54589844 61.30371094 C62.55623611 60.63988403 62.56657379 59.97605713 62.57722473 59.29211426 C62.60663646 57.1059531 62.60815143 54.92071839 62.609375 52.734375 C62.62435791 51.21549719 62.6410853 49.69663567 62.65948486 48.17779541 C62.7031589 44.18623097 62.72315734 40.19488629 62.73822021 36.203125 C62.7577913 32.12747197 62.79976123 28.05205629 62.83984375 23.9765625 C62.91514658 15.98440804 62.96336647 7.99242536 63 0 C71.58 0 80.16 0 89 0 C89 33 89 66 89 100 C80.42 100 71.84 100 63 100 C62.505 95.545 62.505 95.545 62 91 C61.47792969 91.38671875 60.95585938 91.7734375 60.41796875 92.171875 C51.11930494 98.75096463 43.16059123 101.34000246 31.8125 101.4375 C30.96905029 101.44765137 30.12560059 101.45780273 29.2565918 101.46826172 C20.2930452 101.34331584 12.35185651 98.52829697 6 92 C1.4499669 84.87086398 -0.15563635 78.76016055 -0.11352539 70.38574219 C-0.11367142 69.62437958 -0.11381744 68.86301697 -0.1139679 68.07858276 C-0.11327255 65.56798429 -0.10549787 63.05746048 -0.09765625 60.546875 C-0.09579073 58.80381308 -0.09436746 57.06075063 -0.09336853 55.31768799 C-0.08955394 50.73427884 -0.07973267 46.15090149 -0.06866455 41.56750488 C-0.0584277 36.88875763 -0.05386604 32.21000523 -0.04882812 27.53125 C-0.03810946 18.35415047 -0.0205212 9.17708285 0 0 Z " fill="#FAF5EE" transform="translate(592,728)"/>
<path d="M0 0 C0.87962402 0.00491455 1.75924805 0.0098291 2.66552734 0.01489258 C15.1627793 0.23900184 26.31183004 3.54265803 36.25 11.3125 C34.80797524 15.46401338 32.7489562 18.61228445 30.125 22.125 C29.40054688 23.10082031 28.67609375 24.07664062 27.9296875 25.08203125 C27.37539063 25.81808594 26.82109375 26.55414062 26.25 27.3125 C25.54875 27.01601563 24.8475 26.71953125 24.125 26.4140625 C14.81890959 22.84841373 2.94959721 19.96419401 -6.86328125 22.95703125 C-8.70851284 23.85102174 -10.29394556 24.85644556 -11.75 26.3125 C-12.12518495 29.68916458 -12.2044255 31.62098294 -10.3125 34.5 C-4.66120513 38.49725735 1.85532333 39.4573928 8.5625 40.6875 C18.51087552 42.61331392 28.36338385 45.48081392 35.25 53.3125 C39.11097512 59.07646052 39.9327467 64.35228757 39.8125 71.1875 C39.80081787 72.07083008 39.78913574 72.95416016 39.77709961 73.86425781 C39.45393773 83.39885407 36.81546683 89.1219247 29.9375 95.75 C18.44598625 105.23384496 3.32828043 104.0007375 -10.75 103.3125 C-20.17707503 102.16688223 -28.68060979 98.32298798 -36.125 92.43359375 C-37.75 90.3125 -37.75 90.3125 -37.78515625 87.98828125 C-36.41888584 84.45660113 -34.40008163 81.53933496 -32.1875 78.5 C-31.76275391 77.90251953 -31.33800781 77.30503906 -30.90039062 76.68945312 C-29.85776741 75.22509467 -28.80489548 73.76804265 -27.75 72.3125 C-27.21632813 72.71082031 -26.68265625 73.10914063 -26.1328125 73.51953125 C-17.81460227 79.43438316 -10.7125622 81.54048951 -0.5 81.6875 C0.17361572 81.70151855 0.84723145 81.71553711 1.54125977 81.72998047 C6.15067634 81.68552214 9.34252025 80.73987378 13.25 78.3125 C14.79586876 75.22076248 14.54359521 72.71820448 14.25 69.3125 C11.51160525 65.85946643 9.25943032 64.7167366 5 63.8125 C3.94554687 63.57144531 2.89109375 63.33039062 1.8046875 63.08203125 C-0.03326099 62.6841457 -1.87126128 62.28648955 -3.70996094 61.89208984 C-16.19350556 59.17162493 -27.4356311 55.61652466 -34.75 44.3125 C-37.88324678 36.87892458 -38.01926285 27.2866382 -36.02734375 19.48046875 C-32.75380192 11.70083695 -28.05960379 7.06923921 -20.54296875 3.390625 C-13.62165849 0.71890244 -7.35522187 -0.04869606 0 0 Z " fill="#F8F4ED" transform="translate(779.75,725.6875)"/>
<path d="M0 0 C8.91 0 17.82 0 27 0 C27 46.53 27 93.06 27 141 C18.09 141 9.18 141 0 141 C0 94.47 0 47.94 0 0 Z " fill="#F7F3EC" transform="translate(700,687)"/>
<path d="M0 0 C8.58 0 17.16 0 26 0 C26 46.2 26 92.4 26 140 C17.42 140 8.84 140 0 140 C0 93.8 0 47.6 0 0 Z " fill="#FAF7F0" transform="translate(436,688)"/>
<path d="M0 0 C6.82080929 3.69897735 10.3576507 10.42860427 12.796875 17.5625 C15.18410938 27.74079933 14.76706777 38.96696325 9.65625 48.2265625 C5.94802042 53.73383415 2.20439346 57.4201781 -4.34375 59.2265625 C-10.39954336 60.19023305 -14.56366166 59.25989924 -19.5625 55.69921875 C-25.75410032 50.58028603 -29.7039249 44.16009838 -30.57568359 36.07568359 C-31.32957563 24.53899509 -30.82426369 14.67702077 -23.46875 5.2890625 C-17.14956946 -1.34294876 -8.73135956 -2.88134865 0 0 Z " fill="#070F18" transform="translate(282.34375,748.7734375)"/>
<path d="M0 0 C4.29 -0.0825 8.58 -0.165 13 -0.25 C14.33675781 -0.28641602 15.67351563 -0.32283203 17.05078125 -0.36035156 C24.19018406 -0.42661548 29.02120982 -0.03286319 35 4 C39.11120613 8.24824634 40.32257783 13.20420905 40.5 19 C40.19352019 25.176747 39.61779288 31.12769948 35.3125 35.8515625 C30.6467593 39.9535262 27.96624952 41.1259741 21.6796875 41.09765625 C20.54772949 41.09515869 19.41577148 41.09266113 18.24951172 41.09008789 C16.80592285 41.08098389 15.36233398 41.07187988 13.875 41.0625 C9.29625 41.041875 4.7175 41.02125 0 41 C0 27.47 0 13.94 0 0 Z " fill="#060E17" transform="translate(510,717)"/>
<path d="M0 0 C1.01771484 0.01353516 2.03542969 0.02707031 3.08398438 0.04101562 C5.57738214 0.0761339 8.06965512 0.12531441 10.5625 0.1875 C11.46136351 13.42076828 11.46136351 13.42076828 9.54296875 17.19140625 C3.2467163 22.72447658 -5.74460836 23.74463687 -13.75390625 23.55078125 C-17.30010288 23.07072843 -19.12668088 21.89673621 -21.4375 19.1875 C-23.17272857 15.71704285 -22.89784575 11.98206421 -22.4375 8.1875 C-20.28741656 4.23134646 -17.76080614 2.49963399 -13.62866211 0.79394531 C-9.17345929 -0.43911583 -4.58449133 -0.11632737 0 0 Z " fill="#060E16" transform="translate(380.4375,784.8125)"/>
<path d="M0 0 C5.05904822 3.01597106 9.10187942 7.38062471 11.25 12.9375 C11.25 14.9175 11.25 16.8975 11.25 18.9375 C-2.28 18.9375 -15.81 18.9375 -29.75 18.9375 C-28.56624189 11.83495133 -26.45178227 7.50419315 -21.25 2.5625 C-14.43610443 -1.86653212 -7.77020806 -2.20155895 0 0 Z " fill="#060E15" transform="translate(885.75,747.0625)"/>
<path d="M0 0 C8.58 0 17.16 0 26 0 C26 32.01 26 64.02 26 97 C25.34 96.67 24.68 96.34 24 96 C24 64.98 24 33.96 24 2 C16.74 2 9.48 2 2 2 C2 24.11 2 46.22 2 69 C0.515 69.495 0.515 69.495 -1 70 C-0.67 46.9 -0.34 23.8 0 0 Z " fill="#FEFDFB" transform="translate(655,728)"/>
<path d="M0 0 C18.15 0 36.3 0 55 0 C55 0.33 55 0.66 55 1 C37.51 1 20.02 1 2 1 C2.33 44.23 2.66 87.46 3 132 C10.26 132.33 17.52 132.66 25 133 C25 133.33 25 133.66 25 134 C16.75 134 8.5 134 0 134 C0 89.78 0 45.56 0 0 Z " fill="#FBFBF9" transform="translate(483,694)"/>
<path d="M0 0 C8.58 0 17.16 0 26 0 C26 22.11 26 44.22 26 67 C24 65 24 65 23.75949097 62.36776733 C23.7661528 60.69564682 23.7661528 60.69564682 23.77294922 58.98974609 C23.77310028 57.72858978 23.77325134 56.46743347 23.77340698 55.1680603 C23.78362102 53.78651778 23.79405303 52.40497685 23.8046875 51.0234375 C23.80841712 49.61382243 23.81126433 48.20420477 23.81326294 46.79458618 C23.82090345 43.08240618 23.84055539 39.37038239 23.8626709 35.65826416 C23.88312041 31.87115594 23.89226273 28.0840225 23.90234375 24.296875 C23.92380103 16.86450383 23.95898641 9.43229369 24 2 C16.74 2 9.48 2 2 2 C2.01047363 3.9888623 2.02094727 5.97772461 2.03173828 8.02685547 C2.06395262 14.58868077 2.08695323 21.1504874 2.10362434 27.71236992 C2.11407386 31.69191773 2.12825422 35.67138021 2.15087891 39.65087891 C2.17256585 43.48933886 2.18455982 47.32771659 2.18975449 51.16623306 C2.19345773 52.63270487 2.200689 54.09917205 2.21146011 55.56560898 C2.22592019 57.61529106 2.22798029 59.66463082 2.22705078 61.71435547 C2.231492 62.88239716 2.23593323 64.05043884 2.24050903 65.25387573 C2 68 2 68 0 70 C0 46.9 0 23.8 0 0 Z " fill="#FEFDFA" transform="translate(592,728)"/>
<path d="M0 0 C16.17 0 32.34 0 49 0 C49 18.81 49 37.62 49 57 C48.34 57 47.68 57 47 57 C47 38.85 47 20.7 47 2 C32.15 2 17.3 2 2 2 C2 7.94 2 13.88 2 20 C9.59 20 17.18 20 25 20 C25 20.33 25 20.66 25 21 C16.75 21 8.5 21 0 21 C0 14.07 0 7.14 0 0 Z " fill="#FEFEFC" transform="translate(161,756)"/>
<path d="M0 0 C0.80179688 0.00451172 1.60359375 0.00902344 2.4296875 0.01367188 C4.41149006 0.02546832 6.39325433 0.04340395 8.375 0.0625 C8.045 0.7225 7.715 1.3825 7.375 2.0625 C2.095 2.0625 -3.185 2.0625 -8.625 2.0625 C-8.625 17.5725 -8.625 33.0825 -8.625 49.0625 C-16.545 48.7325 -24.465 48.4025 -32.625 48.0625 C-32.625 47.7325 -32.625 47.4025 -32.625 47.0625 C-25.365 47.0625 -18.105 47.0625 -10.625 47.0625 C-10.625 31.8825 -10.625 16.7025 -10.625 1.0625 C-7.31505287 -0.59247356 -3.63377 -0.03834335 0 0 Z " fill="#E2E2E1" transform="translate(518.625,778.9375)"/>
<path d="M0 0 C0.33 0.66 0.66 1.32 1 2 C0.34 1.67 -0.32 1.34 -1 1 C-0.67 0.67 -0.34 0.34 0 0 Z M-3 2 C-2.34 2.33 -1.68 2.66 -1 3 C-3.95956629 6.6254687 -6.8563994 9.98309905 -10.4375 13 C-18.36467935 19.72888479 -25.48060682 27.42347966 -32.78125 34.81640625 C-35.06559972 37.06456029 -37.46374535 39.0434607 -40 41 C-38.60919475 37.86261846 -36.98977796 35.74524719 -34.56005859 33.33300781 C-33.85948334 32.63258362 -33.15890808 31.93215942 -32.43710327 31.21051025 C-31.68184357 30.46557312 -30.92658386 29.72063599 -30.1484375 28.953125 C-29.37440582 28.18192322 -28.60037415 27.41072144 -27.80288696 26.6161499 C-25.33158077 24.15603144 -22.85340817 21.70296152 -20.375 19.25 C-18.69745948 17.58249106 -17.02037055 15.91452768 -15.34375 14.24609375 C-11.23439081 10.1587763 -7.11937353 6.07722304 -3 2 Z M-42 42 C-41.67 42.99 -41.34 43.98 -41 45 C-41.33 45.33 -41.66 45.66 -42 46 C-42.36760731 48.32817964 -42.70241581 50.6618385 -43 53 C-43.66 52.67 -44.32 52.34 -45 52 C-45.36923077 45.47692308 -45.36923077 45.47692308 -43.5 43.0625 C-43.005 42.711875 -42.51 42.36125 -42 42 Z " fill="#C8CACA" transform="translate(405,296)"/>
<path d="M0 0 C1.2065625 0.0309375 1.2065625 0.0309375 2.4375 0.0625 C2.4375 3.0325 2.4375 6.0025 2.4375 9.0625 C10.3575 8.7325 18.2775 8.4025 26.4375 8.0625 C26.4375 9.0525 26.4375 10.0425 26.4375 11.0625 C17.8575 11.0625 9.2775 11.0625 0.4375 11.0625 C0.1075 8.0925 -0.2225 5.1225 -0.5625 2.0625 C-2.8725 3.7125 -5.1825 5.3625 -7.5625 7.0625 C-8.2225 6.4025 -8.8825 5.7425 -9.5625 5.0625 C-8.593125 4.423125 -7.62375 3.78375 -6.625 3.125 C-2.05943252 0.05023006 -2.05943252 0.05023006 0 0 Z " fill="#EFEFED" transform="translate(654.5625,816.9375)"/>
<path d="M0 0 C1.32 0.33 2.64 0.66 4 1 C4 13.87 4 26.74 4 40 C3.01 40 2.02 40 1 40 C1.00523682 38.85934082 1.01047363 37.71868164 1.01586914 36.54345703 C1.03393869 32.32048321 1.04543919 28.09751282 1.05493164 23.87451172 C1.05996737 22.04507879 1.06679627 20.21564991 1.07543945 18.38623047 C1.08753824 15.76008102 1.09323583 13.13398468 1.09765625 10.5078125 C1.10281754 9.68693146 1.10797882 8.86605042 1.11329651 8.02029419 C1.22351874 3.87788156 1.22351874 3.87788156 0 0 Z " fill="#FDFDFC" transform="translate(501,216)"/>
<path d="M0 0 C0 0.33 0 0.66 0 1 C-1.73636719 1.05607422 -1.73636719 1.05607422 -3.5078125 1.11328125 C-5.04690561 1.17897425 -6.5859667 1.24542042 -8.125 1.3125 C-9.26582031 1.34633789 -9.26582031 1.34633789 -10.4296875 1.38085938 C-15.25940202 1.60985446 -18.86727621 2.24485081 -23 5 C-24.44967902 8.5693717 -24.44967902 8.5693717 -25 12 C-25.66 11.67 -26.32 11.34 -27 11 C-26.875 7.75 -26.875 7.75 -26 4 C-18.76002658 -2.39811605 -8.98094176 -1.79618835 0 0 Z " fill="#FCFCFA" transform="translate(792,746)"/>
<path d="M0 0 C2.51564471 1.11806432 4.35798767 2.29533983 6.5 4.0625 C10.62024925 7.25569317 14.62505129 7.20375359 19.75 7.5625 C20.92046875 7.64628906 22.0909375 7.73007812 23.296875 7.81640625 C24.18890625 7.87699219 25.0809375 7.93757812 26 8 C25.67 8.66 25.34 9.32 25 10 C17.21458402 10.47423854 10.67462582 10.40271301 4 6 C0 1.80487805 0 1.80487805 0 0 Z " fill="#EDECEB" transform="translate(392,819)"/>
<path d="M0 0 C0.66 0.33 1.32 0.66 2 1 C1.34950684 1.33322266 0.69901367 1.66644531 0.02880859 2.00976562 C-2.35608235 3.94390865 -2.35608235 3.94390865 -2.48583984 7.50585938 C-2.49871907 8.95178938 -2.48898769 10.39803473 -2.4609375 11.84375 C-2.46002106 12.60925171 -2.45910461 13.37475342 -2.4581604 14.16345215 C-2.45212266 15.78074347 -2.43637119 17.39802352 -2.41162109 19.01513672 C-2.37513295 21.4909789 -2.37060158 23.96532338 -2.37109375 26.44140625 C-2.36126157 28.01303377 -2.34960412 29.58465115 -2.3359375 31.15625 C-2.33371185 31.89693726 -2.33148621 32.63762451 -2.32919312 33.40075684 C-2.26030942 37.1301539 -2.12082608 38.81876087 0 42 C-1.32 41.67 -2.64 41.34 -4 41 C-4.09882689 35.64320272 -4.17144782 30.28693515 -4.21972656 24.92944336 C-4.23985059 23.1067582 -4.26715296 21.28413766 -4.30175781 19.46166992 C-4.35024268 16.84277412 -4.37296009 14.22473121 -4.390625 11.60546875 C-4.41127014 10.78974899 -4.43191528 9.97402924 -4.45318604 9.1335907 C-4.45544041 3.4584613 -4.45544041 3.4584613 -1.97558594 0.9621582 C-1.32364258 0.644646 -0.67169922 0.32713379 0 0 Z " fill="#E4E0DC" transform="translate(521,215)"/>
<path d="M0 0 C0.9178125 0.00902344 1.835625 0.01804687 2.78125 0.02734375 C5.02111556 0.05067568 7.26041183 0.08340765 9.5 0.125 C9.5 0.455 9.5 0.785 9.5 1.125 C5.21045164 1.68442897 0.91821787 2.2195291 -3.375 2.75 C-5.20998047 2.98976563 -5.20998047 2.98976563 -7.08203125 3.234375 C-8.24863281 3.37617187 -9.41523437 3.51796875 -10.6171875 3.6640625 C-12.23536377 3.86829834 -12.23536377 3.86829834 -13.88623047 4.07666016 C-14.74877441 4.0926123 -15.61131836 4.10856445 -16.5 4.125 C-17.16 3.465 -17.82 2.805 -18.5 2.125 C-12.18911704 0.25237819 -6.56038603 -0.12396078 0 0 Z " fill="#E3E2E1" transform="translate(780.5,725.875)"/>
<path d="M0 0 C0.66 0 1.32 0 2 0 C2.05420701 2.56278699 2.09377007 5.12441483 2.125 7.6875 C2.15013672 8.7693457 2.15013672 8.7693457 2.17578125 9.87304688 C2.21391569 14.04876781 1.8789919 17.2494138 0 21 C-0.33 21 -0.66 21 -1 21 C-0.67 14.07 -0.34 7.14 0 0 Z " fill="#2E3031" transform="translate(294,770)"/>
<path d="M0 0 C2 2 2 2 2 5 C10.25 5 18.5 5 27 5 C27 5.33 27 5.66 27 6 C17.43 6.33 7.86 6.66 -2 7 C-1.34 4.69 -0.68 2.38 0 0 Z " fill="#0F171F" transform="translate(858,758)"/>
<path d="M0 0 C4.82783324 2.15560327 8.0018426 5.67180855 11.6875 9.375 C12.72100586 10.38433594 12.72100586 10.38433594 13.77539062 11.4140625 C14.75862305 12.39632812 14.75862305 12.39632812 15.76171875 13.3984375 C16.35944092 13.99317871 16.95716309 14.58791992 17.57299805 15.20068359 C19.11683706 17.14732063 19.59286755 18.57190081 20 21 C19.33613281 20.33484375 18.67226563 19.6696875 17.98828125 18.984375 C15.74252732 16.73782892 13.48760766 14.50072926 11.23046875 12.265625 C9.88276804 10.9271281 8.53511264 9.58858557 7.1875 8.25 C6.49462891 7.56550781 5.80175781 6.88101563 5.08789062 6.17578125 C4.43369141 5.52480469 3.77949219 4.87382812 3.10546875 4.203125 C2.50887451 3.61176758 1.91228027 3.02041016 1.29760742 2.41113281 C0 1 0 1 0 0 Z " fill="#050607" transform="translate(634,190)"/>
<path d="M0 0 C0 0.66 0 1.32 0 2 C-1.75 3.7265625 -1.75 3.7265625 -4 5.625 C-4.7425 6.25664062 -5.485 6.88828125 -6.25 7.5390625 C-6.8275 8.02117187 -7.405 8.50328125 -8 9 C-8 6 -8 6 -6.7578125 4.39453125 C-5.94957031 3.61142578 -5.94957031 3.61142578 -5.125 2.8125 C-4.59132813 2.28269531 -4.05765625 1.75289063 -3.5078125 1.20703125 C-2 0 -2 0 0 0 Z M-11 10 C-10.67 10.99 -10.34 11.98 -10 13 C-10.33 13.33 -10.66 13.66 -11 14 C-11.36760731 16.32817964 -11.70241581 18.6618385 -12 21 C-12.66 20.67 -13.32 20.34 -14 20 C-14.36923077 13.47692308 -14.36923077 13.47692308 -12.5 11.0625 C-12.005 10.711875 -11.51 10.36125 -11 10 Z " fill="#DADBDA" transform="translate(374,328)"/>
<path d="M0 0 C-2 2 -2 2 -3.87939453 2.22705078 C-4.62302246 2.21657715 -5.36665039 2.20610352 -6.1328125 2.1953125 C-7.34130859 2.18564453 -7.34130859 2.18564453 -8.57421875 2.17578125 C-9.41597656 2.15902344 -10.25773438 2.14226563 -11.125 2.125 C-12.39923828 2.11146484 -12.39923828 2.11146484 -13.69921875 2.09765625 C-15.79959884 2.07405647 -17.89983444 2.03818483 -20 2 C-20 1.34 -20 0.68 -20 0 C-17.22949974 -0.1946838 -14.45886998 -0.38102792 -11.6875 -0.5625 C-10.90181641 -0.61857422 -10.11613281 -0.67464844 -9.30664062 -0.73242188 C-8.1706543 -0.80493164 -8.1706543 -0.80493164 -7.01171875 -0.87890625 C-6.31522217 -0.9260376 -5.61872559 -0.97316895 -4.90112305 -1.02172852 C-3 -1 -3 -1 0 0 Z " fill="#E3E2E1" transform="translate(171,828)"/>
<path d="M0 0 C3.73639216 1.24546405 4.18756513 2.63404953 6 6 C3.13275314 5.42655063 2.1385485 5.1385485 0 3 C-0.59167969 3.42152344 -1.18335938 3.84304688 -1.79296875 4.27734375 C-2.58316406 4.82519531 -3.37335938 5.37304688 -4.1875 5.9375 C-4.96480469 6.48277344 -5.74210937 7.02804687 -6.54296875 7.58984375 C-9.07950299 9.0456289 -11.1218182 9.59613435 -14 10 C-11.59047014 7.33515572 -8.97326069 5.67253317 -5.875 3.875 C-2.7548618 2.1820261 -2.7548618 2.1820261 0 0 Z " fill="#06080B" transform="translate(390,819)"/>
<path d="M0 0 C0.66 0.33 1.32 0.66 2 1 C-3.33333333 6.33333333 -8.66666667 11.66666667 -14 17 C-14.99 16.67 -15.98 16.34 -17 16 C-16.19175781 15.26394531 -15.38351562 14.52789062 -14.55078125 13.76953125 C-13.47129779 12.78391591 -12.39187388 11.79823535 -11.3125 10.8125 C-10.51682617 10.08836914 -10.51682617 10.08836914 -9.70507812 9.34960938 C-6.38272748 6.312614 -3.15941679 3.2063098 0 0 Z " fill="#FAFAF9" transform="translate(637,441)"/>
<path d="M0 0 C0.99 0 1.98 0 3 0 C4.84477441 2.25734377 6.49322951 4.4720181 8.125 6.875 C8.58003906 7.52597656 9.03507813 8.17695313 9.50390625 8.84765625 C12.78447421 13.56894841 12.78447421 13.56894841 14 16 C13.01 16 12.02 16 11 16 C7 10.74285714 7 10.74285714 7 8 C6.34 8 5.68 8 5 8 C3.7109375 6.25 3.7109375 6.25 2.375 4 C1.92898438 3.2575 1.48296875 2.515 1.0234375 1.75 C0.68570313 1.1725 0.34796875 0.595 0 0 Z " fill="#EFEFED" transform="translate(555,398)"/>
<path d="M0 0 C5.94 0 11.88 0 18 0 C13.57666153 2.94889232 9.26547205 3.84894367 4 3 C2.68 2.01 1.36 1.02 0 0 Z " fill="#E7E7E3" transform="translate(867,726)"/>
<path d="M0 0 C3.88397689 1.55002747 6.02979619 4.00476621 8.75 7.125 C9.94882812 8.49011719 9.94882812 8.49011719 11.171875 9.8828125 C12.07679688 10.93082031 12.07679688 10.93082031 13 12 C12.67 12.66 12.34 13.32 12 14 C9.99387601 12.04761147 7.99507567 10.08862178 6 8.125 C5.42765625 7.56941406 4.8553125 7.01382812 4.265625 6.44140625 C2.80549218 4.99865596 1.39850702 3.5025626 0 2 C0 1.34 0 0.68 0 0 Z " fill="#EAEAE9" transform="translate(626,305)"/>
<path d="M0 0 C0.66 0.66 1.32 1.32 2 2 C-2.95 8.93 -2.95 8.93 -8 16 C-8.33 15.01 -8.66 14.02 -9 13 C-7.59666805 10.64744143 -6.17838877 8.50906161 -4.5625 6.3125 C-4.12873047 5.70599609 -3.69496094 5.09949219 -3.24804688 4.47460938 C-2.17455755 2.97644296 -1.08844835 1.4873339 0 0 Z " fill="#EEEEED" transform="translate(665,424)"/>
<path d="M0 0 C1.51177854 3.02355708 0.29310208 4.85557634 -0.75 8 C-1.26820313 9.60875 -1.26820313 9.60875 -1.796875 11.25 C-3 14 -3 14 -6 16 C-3.10933941 4.29384966 -3.10933941 4.29384966 0 0 Z " fill="#E9E9E8" transform="translate(576,319)"/>
<path d="M0 0 C1.32 0 2.64 0 4 0 C4 3.63 4 7.26 4 11 C3.67 11 3.34 11 3 11 C2.67 8.03 2.34 5.06 2 2 C-0.31 3.65 -2.62 5.3 -5 7 C-5.66 6.34 -6.32 5.68 -7 5 C-6.030625 4.360625 -5.06125 3.72125 -4.0625 3.0625 C-1.23963731 1.3034741 -1.23963731 1.3034741 0 0 Z " fill="#C7C6C4" transform="translate(652,817)"/>
<path d="M0 0 C0.33 0.66 0.66 1.32 1 2 C0.01 3.485 0.01 3.485 -1 5 C-3.6015625 5.51171875 -3.6015625 5.51171875 -6.625 5.6875 C-8.12933594 5.78611328 -8.12933594 5.78611328 -9.6640625 5.88671875 C-10.82035156 5.94279297 -10.82035156 5.94279297 -12 6 C-12 5.34 -12 4.68 -12 4 C-8.7 3.67 -5.4 3.34 -2 3 C-2 2.34 -2 1.68 -2 1 C-1.34 0.67 -0.68 0.34 0 0 Z " fill="#15181C" transform="translate(547,472)"/>
<path d="M0 0 C4.91935902 4.11619836 9.52647956 8.40410362 14 13 C13.34 13.66 12.68 14.32 12 15 C11.38511719 14.31292969 10.77023437 13.62585938 10.13671875 12.91796875 C9.32847656 12.01691406 8.52023437 11.11585938 7.6875 10.1875 C6.88699219 9.29417969 6.08648438 8.40085937 5.26171875 7.48046875 C3.95386936 6.04612616 2.61592469 4.63600706 1.20703125 3.30078125 C0 2 0 2 0 0 Z " fill="#060708" transform="translate(643,320)"/>
<path d="M0 0 C0.66 0.33 1.32 0.66 2 1 C-0.31 4.3 -2.62 7.6 -5 11 C-5.33 10.34 -5.66 9.68 -6 9 C-6.66 8.67 -7.32 8.34 -8 8 C-5.36 5.36 -2.72 2.72 0 0 Z " fill="#171B1F" transform="translate(397,202)"/>
<path d="M0 0 C0.66 0 1.32 0 2 0 C2.66 1.65 3.32 3.3 4 5 C5.98 4.34 7.96 3.68 10 3 C10 3.66 10 4.32 10 5 C5.61538462 8 5.61538462 8 3 8 C0 2.25 0 2.25 0 0 Z " fill="#EAEAE9" transform="translate(461,435)"/>
<path d="M0 0 C3.66786393 1.50349377 5.68910393 3.63728792 8.25 6.625 C8.95640625 7.44226563 9.6628125 8.25953125 10.390625 9.1015625 C10.92171875 9.72804688 11.4528125 10.35453125 12 11 C9 11 9 11 6.73828125 9.1015625 C5.93777344 8.28429687 5.13726563 7.46703125 4.3125 6.625 C3.50425781 5.81289063 2.69601562 5.00078125 1.86328125 4.1640625 C0 2 0 2 0 0 Z " fill="#EEEEED" transform="translate(649,329)"/>
<path d="M0 0 C0.99 0.33 1.98 0.66 3 1 C2.48050781 1.44730469 1.96101563 1.89460937 1.42578125 2.35546875 C-2.52679654 5.78201031 -6.35827082 9.24446679 -10 13 C-9.48223379 8.89552608 -7.35372556 7.04300477 -4.4375 4.25 C-3.61121094 3.45078125 -2.78492188 2.6515625 -1.93359375 1.828125 C-1.29550781 1.22484375 -0.65742188 0.6215625 0 0 Z " fill="#FEFDFB" transform="translate(386,194)"/>
<path d="M0 0 C0 0.66 0 1.32 0 2 C-1.782129 3.44074715 -3.62660276 4.80510649 -5.5 6.125 C-7.03140625 7.21167969 -7.03140625 7.21167969 -8.59375 8.3203125 C-9.3878125 8.87460937 -10.181875 9.42890625 -11 10 C-11 9.01 -11 8.02 -11 7 C-9.1015625 5.17578125 -9.1015625 5.17578125 -6.625 3.3125 C-5.81289063 2.68988281 -5.00078125 2.06726563 -4.1640625 1.42578125 C-2 0 -2 0 0 0 Z " fill="#EBEBEB" transform="translate(470,281)"/>
<path d="M0 0 C4.10958767 1.45044271 7.43258745 3.51110752 11 6 C10.67 6.99 10.34 7.98 10 9 C8.3278148 7.88321917 6.66237197 6.75633648 5 5.625 C3.6078125 4.68527344 3.6078125 4.68527344 2.1875 3.7265625 C1.465625 3.15679687 0.74375 2.58703125 0 2 C0 1.34 0 0.68 0 0 Z " fill="#EAEAE9" transform="translate(405,474)"/>
<path d="M0 0 C0.66 0 1.32 0 2 0 C0.5741914 3.45195767 -1.09746334 5.1014256 -4.125 7.25 C-5.21167969 8.03117187 -5.21167969 8.03117187 -6.3203125 8.828125 C-6.87460937 9.21484375 -7.42890625 9.6015625 -8 10 C-6.43622501 6.67697814 -4.78646849 4.43815993 -2 2 C-1.34 2 -0.68 2 0 2 C0 1.34 0 0.68 0 0 Z " fill="#E7E7E5" transform="translate(637,458)"/>
<path d="M0 0 C0.66 0.66 1.32 1.32 2 2 C-0.31 4.64 -2.62 7.28 -5 10 C-5.99 9.67 -6.98 9.34 -8 9 C-7.01 8.67 -6.02 8.34 -5 8 C-5 7.34 -5 6.68 -5 6 C-4.34 6 -3.68 6 -3 6 C-2.690625 5.38125 -2.38125 4.7625 -2.0625 4.125 C-1.375 2.75 -0.6875 1.375 0 0 Z " fill="#E8E9E7" transform="translate(568,762)"/>
<path d="M0 0 C6.24675325 6.07792208 6.24675325 6.07792208 8 9 C7.67 9.99 7.34 10.98 7 12 C5.82455195 10.56967163 4.65989738 9.13046758 3.5 7.6875 C2.8503125 6.88699219 2.200625 6.08648437 1.53125 5.26171875 C0 3 0 3 0 0 Z " fill="#ECECEB" transform="translate(361,429)"/>
<path d="M0 0 C2 3 2 3 3.4375 5.9375 C4.77449764 8.55801538 6.15962936 10.72144588 8 13 C5.6875 12.4375 5.6875 12.4375 3 11 C0.85884613 7.01302384 0 4.54765452 0 0 Z " fill="#F12526" transform="translate(534,642)"/>
<path d="M0 0 C1.98 0 3.96 0 6 0 C5.67 0.66 5.34 1.32 5 2 C4.34 2 3.68 2 3 2 C2.67 3.98 2.34 5.96 2 8 C-0.1519437 4.77208445 -0.20086443 3.71599191 0 0 Z " fill="#FBFBF9" transform="translate(533,494)"/>
<path d="M0 0 C0.33 0.99 0.66 1.98 1 3 C-1.64 4.98 -4.28 6.96 -7 9 C-5.04783565 5.09567131 -3.12613393 2.96160056 0 0 Z " fill="#E7E7E4" transform="translate(458,411)"/>
<path d="M0 0 C3.43595166 1.52708963 6.11912454 3.59927045 9 6 C8.67 6.99 8.34 7.98 8 9 C7.67 8.01 7.34 7.02 7 6 C5.11683841 4.89163577 5.11683841 4.89163577 3 4 C2.01 3.34 1.02 2.68 0 2 C0 1.34 0 0.68 0 0 Z " fill="#E7E7E6" transform="translate(806,773)"/>
<path d="M0 0 C0.66 0.66 1.32 1.32 2 2 C1.9765625 4.3828125 1.9765625 4.3828125 1.625 7.125 C1.51414062 8.03507812 1.40328125 8.94515625 1.2890625 9.8828125 C1.19367188 10.58148438 1.09828125 11.28015625 1 12 C0.34 11.34 -0.32 10.68 -1 10 C-0.9765625 7.6171875 -0.9765625 7.6171875 -0.625 4.875 C-0.51414062 3.96492188 -0.40328125 3.05484375 -0.2890625 2.1171875 C-0.19367188 1.41851562 -0.09828125 0.71984375 0 0 Z " fill="#E0E0DE" transform="translate(331,290)"/>
<path d="M0 0 C2.95183101 2.95183101 3.08663988 5.95511947 4 10 C3.34 10 2.68 10 2 10 C1.01 7.03 0.02 4.06 -1 1 C-0.67 0.67 -0.34 0.34 0 0 Z " fill="#E5E6E5" transform="translate(915,747)"/>
<path d="M0 0 C0 0.66 0 1.32 0 2 C-1.96875 3.5078125 -1.96875 3.5078125 -4.5 5.125 C-5.3353125 5.66382813 -6.170625 6.20265625 -7.03125 6.7578125 C-7.6809375 7.16773438 -8.330625 7.57765625 -9 8 C-9 7.01 -9 6.02 -9 5 C-7.5390625 3.61328125 -7.5390625 3.61328125 -5.625 2.3125 C-4.68527344 1.65701172 -4.68527344 1.65701172 -3.7265625 0.98828125 C-2 0 -2 0 0 0 Z " fill="#E7E7E5" transform="translate(493,264)"/>
<path d="M0 0 C1.6875 1.3125 1.6875 1.3125 2.6875 3.3125 C1.800625 3.10625 0.91375 2.9 0 2.6875 C-3.5377711 2.28699761 -5.17882967 2.74566484 -8.3125 4.3125 C-8.3125 3.6525 -8.3125 2.9925 -8.3125 2.3125 C-2.92660788 -0.87007261 -2.92660788 -0.87007261 0 0 Z " fill="#E3E3E2" transform="translate(451.3125,184.6875)"/>
<path d="M0 0 C3.7952131 1.49097658 5.61042731 3.75700849 8 7 C5 7 5 7 2.3125 4.625 C0 2 0 2 0 0 Z " fill="#17191D" transform="translate(200,702)"/>
<path d="M0 0 C0.99 0.495 0.99 0.495 2 1 C2.4140625 3.06640625 2.4140625 3.06640625 2.625 5.5625 C2.69976562 6.38878906 2.77453125 7.21507812 2.8515625 8.06640625 C2.92503906 9.02353516 2.92503906 9.02353516 3 10 C1.51171875 8.73046875 1.51171875 8.73046875 0 7 C-0.1875 3.3125 -0.1875 3.3125 0 0 Z " fill="#17191C" transform="translate(359,347)"/>
<path d="M0 0 C2 1 2 1 2 1 Z M-2 1 C-1.34 1.33 -0.68 1.66 0 2 C-3.5 6.875 -3.5 6.875 -8 8 C-6.02 5.69 -4.04 3.38 -2 1 Z " fill="#E9E9E8" transform="translate(411,209)"/>
<path d="M0 0 C3.53600465 1.91135386 5.78972846 3.62642766 8 7 C5 7 5 7 2.9375 5.125 C2.298125 4.42375 1.65875 3.7225 1 3 C0.34 2.34 -0.32 1.68 -1 1 C-0.67 0.67 -0.34 0.34 0 0 Z " fill="#E9E9E7" transform="translate(383,748)"/>
<path d="M0 0 C0 4.38968456 -2.12805101 5.76905739 -5 9 C-5.33 8.01 -5.66 7.02 -6 6 C-4 4 -2 2 0 0 Z " fill="#EEEFED" transform="translate(650,445)"/>
<path d="M0 0 C3.36720387 1.39332574 4.9859524 2.9789286 7 6 C4 6 4 6 1.8125 4.125 C0 2 0 2 0 0 Z " fill="#15181B" transform="translate(636,313)"/>
<path d="M0 0 C1.61949011 2.57213134 2.04408751 3.67669159 1.625 6.75 C1.41875 7.4925 1.2125 8.235 1 9 C0.34 8.67 -0.32 8.34 -1 8 C-0.67 5.36 -0.34 2.72 0 0 Z M2 0 C3 4 3 4 3 4 Z " fill="#15191D" transform="translate(618,254)"/>
<path d="M0 0 C2.88437779 1.29299694 4.87219421 2.65941363 7 5 C6.67 5.66 6.34 6.32 6 7 C3.95880212 5.38405168 1.95927063 3.7143618 0 2 C0 1.34 0 0.68 0 0 Z " fill="#E6E6E4" transform="translate(598,818)"/>
<path d="M0 0 C0.66 0 1.32 0 2 0 C2.33 2.31 2.66 4.62 3 7 C1.68 6.34 0.36 5.68 -1 5 C-0.67 3.35 -0.34 1.7 0 0 Z " fill="#15131E" transform="translate(486,487)"/>
<path d="M0 0 C3.93673644 1.31224548 6.22719294 2.91910327 9 6 C4.75177626 5.52797514 2.80010291 3.03344482 0 0 Z " fill="#EBECEB" transform="translate(405,460)"/>
<path d="M0 0 C0.66 0.66 1.32 1.32 2 2 C0.35 4.31 -1.3 6.62 -3 9 C-3.33 8.01 -3.66 7.02 -4 6 C-2.0625 2.8125 -2.0625 2.8125 0 0 Z " fill="#EDEDEB" transform="translate(453,392)"/>
<path d="M0 0 C0.99 0.33 1.98 0.66 3 1 C2.6875 3.375 2.6875 3.375 2 6 C1.01 6.66 0.02 7.32 -1 8 C-0.67 5.36 -0.34 2.72 0 0 Z " fill="#EDEDE9" transform="translate(678,352)"/>
<path d="M0 0 C0.99 0.33 1.98 0.66 3 1 C2.34 1 1.68 1 1 1 C0.67 1.99 0.34 2.98 0 4 C-2.5625 5.1875 -2.5625 5.1875 -5 6 C-3.63016497 2.83884224 -3.0109362 2.0072908 0 0 Z " fill="#080A0F" transform="translate(415,188)"/>
</svg>
